PathFileType        4      (X/Y/Z)      C:\Users\pc\Desktop\IMUTRC\Sujet_04\Sujet_04_velo_80.trc         
DataRate	CameraRate	NumFrames	NumMarkers	Units	OrigDataRate	OrigDataStartFrame	OrigNumFrames
60.0	60.0	4	64	mm	60.0	117	934
Frame#	Time	pHipOrigin			pRightASI			pLeftASI			pRightCSI			pLeftCSI			pRightIschialTub			pLeftIschialTub			pSacrum			pL5SpinalProcess			pL3SpinalProcess			pT12SpinalProcess			pIJ			pT4SpinalProcess			pT8SpinalProcess			pPX			pC7SpinalProcess			pTopOfHead			pRightAuricularis			pLeftAuricularis			pBackOfHead			pRightAcromion			pLeftAcromion			pRightArmLatEpicondyle			pRightArmMedEpicondyle			pLeftArmLatEpicondyle			pLeftArmMedEpicondyle			pRightUlnarStyloid			pRightRadialStyloid			pRightOlecranon			pLeftUlnarStyloid			pLeftRadialStyloid			pLeftOlecranon			pRightTopOfHand			pRightPinky			pRightBallHand			pLeftTopOfHand			pLeftPinky			pLeftBallHand			pRightGreaterTrochanter			pRightKneeLatEpicondyle			pRightKneeMedEpicondyle			pRightPatella			pLeftGreaterTrochanter			pLeftKneeLatEpicondyle			pLeftKneeMedEpicondyle			pLeftPatella			pRightTibialTub			pRightLatMalleolus			pRightMedMalleolus			pLeftTibialTub			pLeftLatMalleolus			pLeftMedMalleolus			pRightHeelFoot			pRightFirstMetatarsal			pRightFifthMetatarsal			pRightPivotFoot			pRightHeelCenter			pRightToe			pLeftHeelFoot			pLeftFirstMetatarsal			pLeftFifthMetatarsal			pLeftPivotFoot			pLeftHeelCenter			pLeftToe			
		X1	Y1	Z1	X2	Y2	Z2	X3	Y3	Z3	X4	Y4	Z4	X5	Y5	Z5	X6	Y6	Z6	X7	Y7	Z7	X8	Y8	Z8	X9	Y9	Z9	X10	Y10	Z10	X11	Y11	Z11	X12	Y12	Z12	X13	Y13	Z13	X14	Y14	Z14	X15	Y15	Z15	X16	Y16	Z16	X17	Y17	Z17	X18	Y18	Z18	X19	Y19	Z19	X20	Y20	Z20	X21	Y21	Z21	X22	Y22	Z22	X23	Y23	Z23	X24	Y24	Z24	X25	Y25	Z25	X26	Y26	Z26	X27	Y27	Z27	X28	Y28	Z28	X29	Y29	Z29	X30	Y30	Z30	X31	Y31	Z31	X32	Y32	Z32	X33	Y33	Z33	X34	Y34	Z34	X35	Y35	Z35	X36	Y36	Z36	X37	Y37	Z37	X38	Y38	Z38	X39	Y39	Z39	X40	Y40	Z40	X41	Y41	Z41	X42	Y42	Z42	X43	Y43	Z43	X44	Y44	Z44	X45	Y45	Z45	X46	Y46	Z46	X47	Y47	Z47	X48	Y48	Z48	X49	Y49	Z49	X50	Y50	Z50	X51	Y51	Z51	X52	Y52	Z52	X53	Y53	Z53	X54	Y54	Z54	X55	Y55	Z55	X56	Y56	Z56	X57	Y57	Z57	X58	Y58	Z58	X59	Y59	Z59	X60	Y60	Z60	X61	Y61	Z61	X62	Y62	Z62	X63	Y63	Z63	X64	Y64	Z64	
117	1.933	4.919907857114186E-14	1249.99598	5.863317863948313E-14	85.75504460979927	1322.36235	160.28835005547302	97.81274578762518	1357.04271	-131.34567056193288	53.877540829863456	1405.36402	141.99110154929926	63.76875682446672	1433.74412	-96.74310340290631	-73.47791797877586	1195.25881	51.091820603732515	-68.53230998147423	1209.47776	-68.27528187237029	-66.23771015230767	1286.69937	1.6308967333866633	-3.288132839484158	1383.68879	14.605250581376799	67.33636373797745	1481.83423	29.892155623046136	135.68484645199854	1569.05535	43.995282755677344	401.7582979946029	1581.88708	73.87908687110848	292.4545846671591	1694.77167	70.67549026201657	214.6092114465602	1644.83195	58.20313476332814	298.2986505007783	1509.28952	56.86824552177876	342.81279637185327	1724.48119	78.44550350826697	592.2397026982699	1770.02807	111.96031498108738	496.8079526376889	1729.33644	166.38292307403452	513.6942489430951	1739.74055	30.582862159744337	484.8296770523511	1784.42042	99.77329836273171	318.2664078648623	1664.07955	264.28517074117053	364.02401364950407	1702.40136	-111.0091671131112	332.833581556578	1344.55778	275.98057735013396	306.8705620072809	1338.37312	214.465644180201	407.1150602581016	1381.26117	-96.61311052575792	365.723624284576	1376.05911	-44.15004189845371	435.9782524230818	1113.64435	208.89887354068085	483.58816639380507	1136.70679	218.06953885191768	296.86552488845433	1331.14804	243.00691758911188	453.7208723201195	1141.96664	7.037679164551491	503.7279135513823	1159.48023	16.00778992141926	362.8146351574837	1371.08826	-77.02126504820674	649.8453632865491	1058.15576	307.9413268852864	557.3918495155423	1040.41097	260.7946799767028	498.396952318686	1086.82486	218.0932919032576	670.8878056483766	1038.50355	-1.0407084963916873	566.7953922317332	1044.63042	13.56617718380295	508.40167566427135	1106.99728	25.894009567341755	12.772465983040107	1225.14172	178.51959941666098	301.6279261311957	901.92071	215.77115770781552	310.12332937791894	891.1698	132.73660205292225	339.0695167374076	929.89621	170.4705216411439	22.33563499880762	1240.74789	-176.51474486410848	369.9799453074113	979.02673	-179.085777474663	380.27634780595844	981.10755	-95.59695300230138	400.99248605606124	1019.54495	-138.7094476941923	326.90215721146706	839.66946	170.26758034247598	10.876294785252156	573.61325	101.71466312776295	27.347593529560797	578.8153	37.717127229349366	422.21649984150827	939.14431	-141.2014872961363	265.51293808698153	551.64902	-165.82453923505776	273.0481014480305	550.0884	-100.01390539077083	-64.89966109739082	527.37276	49.17555158142119	86.09338901538624	435.23859	15.73765905265384	73.44498961100965	422.29125	98.4088604279294	99.80586183455226	415.41298	56.89796333643474	-28.45151144882435	505.35073	51.33866499446805	174.50483841078665	364.08604	60.31519770716292	212.59019588828232	469.74555	-124.58613167304073	383.42037179434453	448.35933	-71.97734385529276	387.3841145070304	436.85701	-155.73657646907773	409.03464745097733	439.05343	-111.05089799702057	254.90853569437928	465.41051	-121.9914969517919	498.3816136505468	424.66108	-104.8341214031656	
118	1.95	4.919907857114186E-14	1249.99598	5.863317863948313E-14	84.70509026095097	1322.99815	160.56573297768446	98.90138515929125	1356.2913	-131.127346283259	53.04744908654307	1405.94203	141.63128259236214	64.70724537391926	1433.22392	-97.15332609199902	-73.90085083095934	1195.60561	50.76763053210179	-68.09666053832386	1209.24655	-68.56538261811694	-66.18070853208407	1286.75717	0.9794463642932953	-3.2382618921090582	1383.74659	14.03522304449116	67.36486071786702	1481.89203	29.566433652437503	135.60340953147028	1569.11315	43.98815085026051	401.53437370949007	1581.94488	75.50059299537588	292.2805454177419	1694.77167	71.72697008196666	214.47790357865688	1644.88975	58.76603039479696	298.1760128651458	1509.28952	57.8011417252368	342.52882198944985	1724.48119	79.81558748172938	591.7801430791509	1770.31707	113.93044770985856	496.39979463235454	1729.50984	168.23447218631364	513.3675290908574	1739.85615	32.44152908911974	484.3843659231769	1784.53602	101.58057010619854	317.2709176951862	1663.55935	265.34684379935663	364.4871698513594	1702.69036	-109.73783234807762	332.25642977471995	1344.21098	276.01213689541106	306.46340188357567	1338.14191	214.43002938321519	407.22805152859917	1381.37677	-96.02884858724804	366.0295118471214	1376.17471	-43.42581594809016	435.6881516773351	1113.52874	208.46322409753049	483.3423365889946	1136.64899	217.59672862448298	296.3698112596929	1330.80124	243.04559495148527	453.8608286715287	1141.79324	6.844789300379716	503.8678699027916	1159.24903	15.814900057247428	363.001932675661	1371.26166	-76.34844837207228	649.7537524114132	1058.04016	307.11276704094394	557.2488229383011	1040.29537	260.08470251628404	498.20252412766024	1086.76706	217.50189805933093	671.0776252867165	1038.44575	-1.80361946957305	567.0081229318442	1044.45702	13.01041222518262	508.5930348620335	1106.82387	25.582521998357407	11.55252640391511	1227.04914	178.8641643415798	312.85534178965037	916.13966	222.49725091588863	322.7722293910523	904.98414	139.62810011522723	349.6683790002195	945.21337	177.3467580109861	21.714205848137283	1238.66706	-176.44603219499155	354.8128787524472	958.73871	-177.8280012901651	365.47928059041527	960.87733	-94.34783296175374	388.0739342662772	997.86972	-137.82933553931264	337.40940093869864	853.6572	176.31526329585176	16.276724424983243	594.99948	103.29487267235321	33.066627322804216	600.66394	39.40727190692577	408.68364957390236	919.6077	-140.3340853043474	260.3827606966134	528.87558	-166.27337159859198	268.1179522551271	527.19936	-100.40421066297964	-59.927750227961624	549.8572	50.964439039550356	90.05096676082911	456.10461	17.396776969733665	77.40256735645254	443.38848	100.06797834500922	103.60057859469082	436.2212	58.54283276356977	-23.679614688539356	527.43056	53.06902659384015	177.77381909117236	384.08505	61.873044295651304	207.26000438877003	447.02991	-125.09348989533201	377.89169042422157	425.00788	-72.09179167639198	382.0182941222118	413.56336	-155.8367758002321	403.54311920469416	415.64418	-111.12106844930747	249.57121994989458	442.57927	-122.41742468143107	492.83156597338257	400.90503	-104.70427008586384	
119	1.967	4.919907857114186E-14	1249.99598	5.863317863948313E-14	83.06374206817596	1323.74956	161.03754409092173	100.4643654248016	1355.4243	-130.703407889002	51.80307297454506	1406.63564	141.31727933109127	66.00861544569642	1432.58811	-97.49076677194543	-74.51667997519074	1196.01021	50.3034764486174	-67.3953392218554	1208.95755	-69.078408534779	-66.13949372865928	1286.87277	0.039419487986748436	-3.1812679323298996	1383.80439	13.383779103273888	67.34908156151266	1481.94983	29.277850717348215	135.5077369767494	1569.11315	44.143895251036874	401.17915564479443	1581.94488	77.68499598368044	291.95228600608186	1694.82948	73.13421360714507	214.2066470197887	1644.88975	59.52180946256148	297.98059322036704	1509.34732	59.09691945101949	342.1206639841156	1724.48119	81.6671365940085	591.2406912942337	1770.66388	116.3448936861748	495.8231897235976	1729.68324	170.6046407938176	512.8723546747526	1740.08735	34.8188219415961	483.7263305217677	1784.70942	103.94361446873012	316.0326743744076	1663.03914	266.838581615143	365.1147177049285	1702.97936	-108.00080517270568	331.3922474729472	1343.80637	276.51091432212826	305.72492744326735	1337.91071	214.89877793106493	407.3425811259507	1381.55017	-94.99314915622062	365.98829704369666	1376.29032	-42.485789071783614	435.1181241404494	1113.41314	208.41335315015533	482.73517001658956	1136.59119	217.50258154086396	295.54990632673235	1330.51223	243.50721925436267	453.6022887036274	1141.56204	6.986277550766886	503.64648305873015	1158.90222	16.000665676446857	362.9978709960761	1371.43506	-75.36414412695345	649.3521858662708	1057.80896	306.5442778309123	556.7958547793742	1040.17977	259.6347969227445	497.6096060452	1086.70926	217.2448899904075	670.8318095702266	1038.21455	-2.276428464439391	566.8294815576173	1044.16801	12.707594888469089	508.3487357236326	1106.47707	25.561155691316287	10.006871282057546	1229.24556	179.18023994705345	323.3972088601148	931.74583	230.0249453152686	334.76561858807577	920.0701	147.4468867141069	359.507400515682	961.80214	184.93604206707903	21.411388511423738	1236.52844	-176.26739082076455	338.4574398240797	938.4507	-175.64851482676644	349.3309735882882	940.70492	-92.19125879269464	373.9227250738329	976.02109	-135.9903535538162	347.71970078261796	869.14777	183.2072877150611	23.77454707012442	615.28749	105.75605168228078	40.92020081742151	621.58776	42.02265575820738	393.37968280504043	900.01329	-137.98055316365543	251.87115180058692	506.96915	-166.52571108734202	259.07347660649924	505.17733	-100.66215015816859	-52.52562065373792	570.60762	53.58135355724153	97.16605938726195	476.16142	20.48090170842059	84.30339615122806	463.79209	103.25645229856394	110.58283145424241	456.39361	61.738423301652446	-16.41031722075247	548.06538	55.797400483050964	184.56471398553003	403.96846	65.38010831439783	198.01398915989617	425.29689	-125.86137742090668	368.1830530108412	402.17664	-71.7924202256622	372.7682184463213	390.96332	-155.62037316900847	394.034495900458	392.81294	-110.76317113982057	240.25954695684683	420.61504	-122.90386117733325	483.1544893378477	377.55358	-103.8277609415965	
120	1.983	4.919907857114186E-14	1249.99598	5.863317863948313E-14	81.11958296656348	1324.61657	161.68800423883042	102.33168849812729	1354.38388	-130.00668869734332	50.23297489193845	1407.44484	140.97477908993085	67.63571514852667	1431.8367	-97.79971689987838	-75.28112161478165	1196.47262	49.662212889883904	-66.56117937107399	1208.61075	-69.70288616251625	-66.04688497189423	1286.98837	-1.01918457693575	-3.1543016188498934	1383.8622	12.606613212271652	67.29614804875007	1482.00763	28.945004501767183	135.3234955960835	1569.17095	44.37394466692466	400.7140036796809	1582.06049	80.18798903717678	291.5212310272969	1694.88728	74.77861793743149	213.92114073840744	1644.94755	60.44046360395083	297.71951581141434	1509.40512	60.67414820647463	341.56542538239967	1724.53899	83.79300606311156	590.5470270075182	1771.12628	119.11509693984323	495.17381046613866	1729.97225	173.33768449577008	512.2601208806891	1740.31856	37.59614944023696	483.0397981404689	1784.94063	106.63238080187031	314.6544682743437	1662.57674	268.5232016346568	365.83235219510016	1703.26836	-105.88665441294037	330.2924298371682	1343.45957	277.3583183533493	304.75794191392515	1337.67951	215.63472259076624	407.4357367558167	1381.66577	-93.71314415891621	365.8514109181193	1376.34812	-41.39003188302124	434.24528569472636	1113.29754	208.54213123745166	481.86233157086656	1136.53339	217.63135962816028	294.57578889197345	1330.16543	244.32460083459227	453.12947847619273	1141.21524	7.2321073555773125	503.1665485863231	1158.43982	16.327925973909544	362.9795684869908	1371.60847	-74.21698532440638	648.6920793532272	1057.51995	306.1172768712678	556.0400680511651	1040.00637	259.36354679175236	496.75100966154554	1086.59366	217.21079943195508	670.2760305232857	1037.86775	-2.4891603971188943	566.2665859261484	1043.76341	12.576287020565758	507.84590427777493	1106.01467	25.68127120678625	8.135480101270844	1231.67319	179.4678173400692	333.32631701217974	948.5658	237.9913529557548	346.1462335458109	936.25427	155.704399409845	368.6522249596485	979.48913	192.95692154718182	21.3085852838544	1234.33202	-176.03022358778045	320.7792427681288	918.68289	-172.88728334971267	331.77849848212236	920.99491	-89.46005496194002	358.3230652132299	954.46147	-133.5396105315494	357.8544153898216	885.79434	190.69936088957917	33.09540133145849	634.41949	108.95110177513857	50.515381863455644	641.35556	45.364794107891214	376.68732955363083	880.47669	-134.76383660281982	240.2738121510876	485.87192	-166.6787750107588	246.48470723434042	483.9645	-100.7378311801976	-42.84900145460721	589.79742	56.930609724021664	107.12006793648023	495.52463	24.88011988449344	94.13169041110578	483.6755	107.68569169305985	120.52258508563978	476.04582	66.30049480258519	-6.67364792433121	567.37078	59.39807880063607	194.62458189982905	423.85187	70.44502534950885	185.20789585582918	404.60427	-126.73561115717564	354.78150418326254	379.92341	-71.48792152578648	359.89241212637165	368.94129	-155.2288439700417	380.8187126920788	370.44411	-110.23728559588355	227.42494901244584	399.57561	-123.45236651511748	469.844557813281	354.49114	-102.69469473693391	
